<?xml version="1.0" encoding="iso-8859-1"?>
<!-- Generator: Adobe Illustrator 19.0.0, SVG Export Plug-In . SVG Version: 6.00 Build 0)  -->
<svg version="1.1" id="Layer_1" xmlns="http://www.w3.org/2000/svg" xmlns:xlink="http://www.w3.org/1999/xlink" x="0px" y="0px"
	 viewBox="0 0 512.002 512.002" style="enable-background:new 0 0 512.002 512.002;" xml:space="preserve">
<path style="fill:#E65A5B;" d="M36.731,239.804c23.881,132.301,202.982,108.421,210.942,108.421h16.654
	c7.96,0,187.061,23.881,210.942-108.421L256,227.498L36.731,239.804z"/>
<path style="fill:#FF6465;" d="M255.999,252.704c43.413,3.98,143.648,27.861,192.735,9.287
	c38.473-6.634,54.394-30.513,54.394-30.513c-65.008-37.147-149.915-118.075-247.129-29.188
	c-97.214-88.887-182.122-7.96-247.129,29.188c0,0,15.92,23.881,54.394,30.513C112.351,280.565,212.586,256.684,255.999,252.704z"/>
<path d="M0.238,229.441c-0.565,2.393-0.111,4.912,1.253,6.958c0.538,0.808,10.216,14.954,31.714,25.311
	c8.246,24.723,22.931,45.138,43.721,60.71c17.651,13.222,39.772,22.995,65.748,29.049c17.04,3.972,34.485,6.091,51.952,6.891
	c17.622,0.807,35.205-1.122,52.82-1.24c17.781-0.118,35.515,1.672,53.295,1.672c17.963,0,40.563-1.328,63.919-6.289
	c4.792-1.018,7.852-5.728,6.834-10.52c-1.017-4.791-5.727-7.851-10.52-6.834c-40.8,8.666-79.57,5.521-92.309,4.488
	c-2.462-0.199-3.495-0.28-4.337-0.28h-16.654c-0.842,0-1.876,0.082-4.338,0.282c-36.053,2.927-68.564,1.094-96.634-5.448
	c-44.94-10.473-75.557-32.212-91.267-64.729c0.163,0.038,0.331,0.064,0.496,0.102c2.997,0.686,5.805,1.358,8.731,2.29
	c19.012,6.06,39.79,6.436,59.553,5.758c31.173-1.073,62.057-5.837,92.839-10.584c15.393-2.374,28.74-4.432,38.95-5.411
	c16.71-1.603,37.496,5.237,54.088,7.708c36.019,5.362,73.043,10.867,109.527,7.648c12.6-1.112,24.215-4.646,36.446-7.406
	c0.163-0.037,0.33-0.064,0.493-0.101c-11.644,24.033-31.514,42.261-59.274,54.323c-4.493,1.952-6.554,7.177-4.601,11.67
	c1.953,4.493,7.179,6.553,11.671,4.601c37.545-16.312,62.575-42.664,74.461-78.355c21.487-10.356,31.16-24.496,31.7-25.303
	c1.364-2.046,1.818-4.565,1.253-6.959s-2.097-4.444-4.232-5.664c-9.456-5.403-19.37-11.769-29.865-18.51
	c-30.496-19.586-65.06-41.785-103.048-49.347c-42.505-8.46-81.382,2.84-118.621,34.545c-24.541-20.835-50.36-33.041-76.842-36.306
	c-23.917-2.949-48.699,1.096-75.766,12.368c-4.523,1.884-6.662,7.076-4.779,11.599c1.883,4.523,7.076,6.662,11.599,4.779
	c24.15-10.058,45.992-13.701,66.774-11.138c25.268,3.117,49.158,15.242,73.032,37.072c3.389,3.099,8.583,3.099,11.972,0
	c77.738-71.081,145.929-27.285,206.092,11.355c7.318,4.699,14.357,9.221,21.23,13.411c-4.449,4.08-11.332,9.222-20.991,13.424
	c-0.096,0.037-0.194,0.06-0.289,0.101c-7.283,3.108-15.169,3.82-22.433,6.568c-34.94,13.221-100.255,3.15-147.944-4.205
	c-13.075-2.017-24.701-3.81-34.422-4.944c-2.244-0.263-4.386-0.49-6.42-0.675c-0.538-0.05-1.081-0.05-1.619,0
	c-10.853,0.995-24.751,3.138-40.843,5.619c-41.813,6.448-86.308,15.087-128.644,8.925c-8.024-1.167-15.447-4.033-23.332-5.617
	c-6.303-1.266-12.496-3.118-18.4-5.671c-0.112-0.048-0.229-0.076-0.343-0.119c-9.638-4.195-16.5-9.325-20.942-13.4
	c6.876-4.192,13.92-8.714,21.241-13.416c10.932-7.02,22.235-14.278,33.908-21.007c4.244-2.446,5.702-7.87,3.255-12.115
	c-2.446-4.245-7.872-5.701-12.115-3.255c-12.04,6.94-23.526,14.316-34.634,21.448c-10.498,6.742-20.414,13.108-29.871,18.512
	C2.335,224.996,0.802,227.047,0.238,229.441z"/>
<g>
</g>
<g>
</g>
<g>
</g>
<g>
</g>
<g>
</g>
<g>
</g>
<g>
</g>
<g>
</g>
<g>
</g>
<g>
</g>
<g>
</g>
<g>
</g>
<g>
</g>
<g>
</g>
<g>
</g>
</svg>
