<?xml version="1.0" encoding="iso-8859-1"?>
<!-- Generator: Adobe Illustrator 19.0.0, SVG Export Plug-In . SVG Version: 6.00 Build 0)  -->
<svg version="1.1" id="Layer_1" xmlns="http://www.w3.org/2000/svg" xmlns:xlink="http://www.w3.org/1999/xlink" x="0px" y="0px"
	 viewBox="0 0 512 512" style="enable-background:new 0 0 512 512;" xml:space="preserve">
<rect x="210.489" style="fill:#A2001D;" width="91.022" height="125.156"/>
<rect x="256" style="fill:#6C0014;" width="45.511" height="125.156"/>
<path style="fill:#FFE98F;" d="M336.491,223.465l-1.683-2.949c-7.277-12.761-6.618-28.774,1.68-40.795
	c13.878-20.105,16.222-25.576,16.222-31.81c0-31.369-25.52-56.889-56.889-56.889h-79.644c-31.369,0-56.889,25.52-56.889,56.889
	c0,6.234,2.345,11.705,16.224,31.81c8.299,12.021,8.958,28.035,1.681,40.795l-1.683,2.949
	c-23.603,41.333-50.355,88.182-50.355,169.068c0,46.764,17.993,86.682,52.035,115.438l4.77,4.029h148.077l4.77-4.029
	c34.045-28.756,52.037-68.674,52.037-115.438C386.844,311.648,360.093,264.798,336.491,223.465z"/>
<path style="fill:#FFC170;" d="M336.491,223.465l-1.683-2.949c-7.277-12.761-6.618-28.774,1.68-40.795
	c13.878-20.105,16.222-25.576,16.222-31.81c0-31.369-25.52-56.889-56.889-56.889H256V512h74.039l4.77-4.029
	c34.043-28.756,52.036-68.674,52.036-115.438C386.844,311.648,360.093,264.798,336.491,223.465z"/>
<path style="fill:#FFFFFF;" d="M277.209,257.316l-1.7-2.978c-9.982-17.5-19.509-32.472-19.509-32.472s-12.805,20.718-19.508,32.472
	l-1.7,2.978c-22.198,38.876-41.37,72.449-41.37,135.217c0,20.425,5.296,37.316,16.122,51.2h92.911
	c10.826-13.884,16.122-30.775,16.122-51.2C318.578,329.766,299.406,296.192,277.209,257.316z"/>
<g>
</g>
<g>
</g>
<g>
</g>
<g>
</g>
<g>
</g>
<g>
</g>
<g>
</g>
<g>
</g>
<g>
</g>
<g>
</g>
<g>
</g>
<g>
</g>
<g>
</g>
<g>
</g>
<g>
</g>
</svg>
